<!--?xml version="1.0" standalone="no"?-->
              <svg id="sw-js-blob-svg" viewBox="0 0 100 100" xmlns="http://www.w3.org/2000/svg" version="1.1">
                    <defs> 
                        <linearGradient id="sw-gradient" x1="0" x2="1" y1="1" y2="0">
                            <stop id="stop1" stop-color="rgba(248, 117, 55, 1)" offset="0%"></stop>
                            <stop id="stop2" stop-color="rgba(251, 168, 31, 1)" offset="100%"></stop>
                        </linearGradient>
                    </defs>
                <path fill="url(#sw-gradient)" d="M23.7,-33.8C28.9,-28.9,29.9,-19.5,30.7,-11.3C31.5,-3.2,32,3.7,29.7,9.3C27.4,15,22.4,19.4,17,21.3C11.5,23.2,5.8,22.5,0.1,22.3C-5.6,22.2,-11.2,22.6,-18.4,21.4C-25.6,20.1,-34.4,17.1,-37.1,11.4C-39.8,5.8,-36.4,-2.5,-31.4,-7.9C-26.5,-13.3,-19.9,-15.9,-14.4,-20.7C-9,-25.4,-4.5,-32.4,2.4,-35.7C9.3,-39,18.6,-38.7,23.7,-33.8Z" width="100%" height="100%" transform="translate(50 50)" stroke-width="0" style="transition: all 0.3s ease 0s;"></path>
              </svg>